<svg class="diagram-root" style="background: #f5f6f6" xmlns="http://www.w3.org/2000/svg" xmlns:xlink="http://www.w3.org/1999/xlink"><style>.diagram-root { font-family: "Helvetica Neue", sans-serif; font-size: 12px; } .t { overflow: visible; } .t-bg { y: 40; fill: #fff;   } .th { fill: #005aa0;   } .tht { fill: #fff; font-size: 14px;  } .tf { fill: #323c46; overflow: visible; } .tf.pk { fill: #005aa0; font-weight: bold; } .tf.fk { font-weight: bold; } .ty { fill: #adb1b5; font-weight: normal; text-anchor: end; } .r { fill: transparent; stroke: #c3c3c3; stroke-width: 1; } .l { stroke: 1; } .i { fill: #c2c7ce; stroke: #c2c7ce; } .i.ix { fill: #afb3b6; stroke: #000; } .fa { fill: transparent; overflow: visible; } .fa .bg.hover { fill: #f7f7f7; } .c { cy: 12; r: 4; stroke: #d2d2dc; fill: #d2d2dc; } .hr { fill: transparent; stroke: #323c46; stroke-opacity: 0.035; stroke-width: 13; } .dc { stroke: #fa5a3c; fill: #fa5a3c; } .x { stroke: white; stroke-width: 1; } .hl .th { fill: #1b9bff; } .hl .tht {  } .fhl .bg { fill: #e7f4ff; } .fhls .bg {  } .r.hl { stroke: #1b9bff; } .dim { opacity: 0.25; }</style><g class="drawing-wrapper" transform="translate(534.8299999999999, 402.67) scale(1,1)"><g class="rs"><path d="M -322.99 -136.51 m -1, 0 a 1,1 0 1,0 2,0 a 1,1 0 1,0 -2,0 M -322.99 -136.51 m -0.5, 0 a 0.5,0.5 0 1,0 1,0 a 0.5,0.5 0 1,0 -1,0  M-322.99 -136.51 L-322.99 -136.51 -310.99 -136.51 M -322.99 -130.51 m -1, 0 a 1,1 0 1,0 2,0 a 1,1 0 1,0 -2,0 M -322.99 -130.51 m -0.5, 0 a 0.5,0.5 0 1,0 1,0 a 0.5,0.5 0 1,0 -1,0  M-322.99 -130.51 L-322.99 -130.51 -315.99 -136.51 -322.99 -142.51 M -322.99 -142.51 m -1, 0 a 1,1 0 1,0 2,0 a 1,1 0 1,0 -2,0 M -322.99 -142.51 m -0.5, 0 a 0.5,0.5 0 1,0 1,0 a 0.5,0.5 0 1,0 -1,0  M-310.99 -136.51 Q -264.17 -136.51, -217.36 -79.62 T -123.73 -22.730000000000004 M -111.73 -22.730000000000004 m -1, 0 a 1,1 0 1,0 2,0 a 1,1 0 1,0 -2,0 M -111.73 -22.730000000000004 m -0.5, 0 a 0.5,0.5 0 1,0 1,0 a 0.5,0.5 0 1,0 -1,0  M-111.73 -22.730000000000004 L-111.73 -22.730000000000004 -123.73 -22.730000000000004 M-117.73 -16.730000000000004 L-117.73 -16.730000000000004 -117.73 -28.730000000000004" id="h1824747239" class="r"></path><path d="M -180.89 -153.95 m -1, 0 a 1,1 0 1,0 2,0 a 1,1 0 1,0 -2,0 M -180.89 -153.95 m -0.5, 0 a 0.5,0.5 0 1,0 1,0 a 0.5,0.5 0 1,0 -1,0  M-180.89 -153.95 L-180.89 -153.95 -192.89 -153.95 M -180.89 -147.95 m -1, 0 a 1,1 0 1,0 2,0 a 1,1 0 1,0 -2,0 M -180.89 -147.95 m -0.5, 0 a 0.5,0.5 0 1,0 1,0 a 0.5,0.5 0 1,0 -1,0  M-180.89 -147.95 L-180.89 -147.95 -187.89 -153.95 -180.89 -159.95 M -180.89 -159.95 m -1, 0 a 1,1 0 1,0 2,0 a 1,1 0 1,0 -2,0 M -180.89 -159.95 m -0.5, 0 a 0.5,0.5 0 1,0 1,0 a 0.5,0.5 0 1,0 -1,0  M-192.89 -153.95 Q -222.41 -153.95, -251.94 -157.73 T -310.99 -161.51 M -322.99 -161.51 m -1, 0 a 1,1 0 1,0 2,0 a 1,1 0 1,0 -2,0 M -322.99 -161.51 m -0.5, 0 a 0.5,0.5 0 1,0 1,0 a 0.5,0.5 0 1,0 -1,0  M-322.99 -161.51 L-322.99 -161.51 -310.99 -161.51 M-316.99 -155.51 L-316.99 -155.51 -316.99 -167.51" id="h1277105345" class="r"></path><path d="M -181.42 132.20999999999998 m -1, 0 a 1,1 0 1,0 2,0 a 1,1 0 1,0 -2,0 M -181.42 132.20999999999998 m -0.5, 0 a 0.5,0.5 0 1,0 1,0 a 0.5,0.5 0 1,0 -1,0  M-181.42 132.20999999999998 L-181.42 132.20999999999998 -193.42 132.20999999999998 M -181.42 138.20999999999998 m -1, 0 a 1,1 0 1,0 2,0 a 1,1 0 1,0 -2,0 M -181.42 138.20999999999998 m -0.5, 0 a 0.5,0.5 0 1,0 1,0 a 0.5,0.5 0 1,0 -1,0  M-181.42 138.20999999999998 L-181.42 138.20999999999998 -188.42 132.20999999999998 -181.42 126.20999999999998 M -181.42 126.20999999999998 m -1, 0 a 1,1 0 1,0 2,0 a 1,1 0 1,0 -2,0 M -181.42 126.20999999999998 m -0.5, 0 a 0.5,0.5 0 1,0 1,0 a 0.5,0.5 0 1,0 -1,0  M-193.42 132.20999999999998 Q -222.81 132.20999999999998, -252.2 -14.65 T -310.99 -161.51 M -322.99 -161.51 m -1, 0 a 1,1 0 1,0 2,0 a 1,1 0 1,0 -2,0 M -322.99 -161.51 m -0.5, 0 a 0.5,0.5 0 1,0 1,0 a 0.5,0.5 0 1,0 -1,0  M-322.99 -161.51 L-322.99 -161.51 -310.99 -161.51 M-316.99 -155.51 L-316.99 -155.51 -316.99 -167.51" id="h221257298" class="r"></path><path d="M -170 -285 m -1, 0 a 1,1 0 1,0 2,0 a 1,1 0 1,0 -2,0 M -170 -285 m -0.5, 0 a 0.5,0.5 0 1,0 1,0 a 0.5,0.5 0 1,0 -1,0  M-170 -285 L-170 -285 -182 -285 M -170 -279 m -1, 0 a 1,1 0 1,0 2,0 a 1,1 0 1,0 -2,0 M -170 -279 m -0.5, 0 a 0.5,0.5 0 1,0 1,0 a 0.5,0.5 0 1,0 -1,0  M-170 -279 L-170 -279 -177 -285 -170 -291 M -170 -291 m -1, 0 a 1,1 0 1,0 2,0 a 1,1 0 1,0 -2,0 M -170 -291 m -0.5, 0 a 0.5,0.5 0 1,0 1,0 a 0.5,0.5 0 1,0 -1,0  M-182 -285 Q -213.2 -285, -244.41 -300.34 T -306.82 -315.67 M -318.82 -315.67 m -1, 0 a 1,1 0 1,0 2,0 a 1,1 0 1,0 -2,0 M -318.82 -315.67 m -0.5, 0 a 0.5,0.5 0 1,0 1,0 a 0.5,0.5 0 1,0 -1,0  M-318.82 -315.67 L-318.82 -315.67 -306.82 -315.67 M-312.82 -309.67 L-312.82 -309.67 -312.82 -321.67" id="h2096559760" class="r"></path><path d="M -170 -260 m -1, 0 a 1,1 0 1,0 2,0 a 1,1 0 1,0 -2,0 M -170 -260 m -0.5, 0 a 0.5,0.5 0 1,0 1,0 a 0.5,0.5 0 1,0 -1,0  M-170 -260 L-170 -260 -182 -260 M -170 -254 m -1, 0 a 1,1 0 1,0 2,0 a 1,1 0 1,0 -2,0 M -170 -254 m -0.5, 0 a 0.5,0.5 0 1,0 1,0 a 0.5,0.5 0 1,0 -1,0  M-170 -254 L-170 -254 -177 -260 -170 -266 M -170 -266 m -1, 0 a 1,1 0 1,0 2,0 a 1,1 0 1,0 -2,0 M -170 -266 m -0.5, 0 a 0.5,0.5 0 1,0 1,0 a 0.5,0.5 0 1,0 -1,0  M-182 -260 Q -214.24 -260, -246.49 -210.75 T -310.99 -161.51 M -322.99 -161.51 m -1, 0 a 1,1 0 1,0 2,0 a 1,1 0 1,0 -2,0 M -322.99 -161.51 m -0.5, 0 a 0.5,0.5 0 1,0 1,0 a 0.5,0.5 0 1,0 -1,0  M-322.99 -161.51 L-322.99 -161.51 -310.99 -161.51 M-316.99 -155.51 L-316.99 -155.51 -316.99 -167.51" id="h1499507187" class="r"></path></g><g class="hrs"></g><g class="ts"><svg width="188.51" height="100" x="-507.33" y="-372.67" id="h475896179" class="t"><rect height="40" width="188.51" class="th"></rect><text x="13" y="25" class="tht">departments</text><rect height="60" width="188.51" class="t-bg" y="40"></rect><text x="13" y="61" class="tf pk">dept_no<tspan x="175.51" class="ty">VARCHAR(10)</tspan></text><path d="M7,14A2,2 0 0,1 5,12A2,2 0 0,1 7,10A2,2 0 0,1 9,12A2,2 0 0,1 7,14M12.65,10C11.83,7.67 9.61,6 7, 6A6, 6 0 0, 0 1, 12A6, 6 0 0, 0 7, 18C9.61, 18 11.83, 16.33 12.65, 14H17V18H21V14H23V10H12.65Z" class="i pk" transform="translate(76.37914062499999, 48) scale(0.65)"></path><text x="13" y="86" class="tf">dept_name<tspan x="175.51" class="ty">VARCHAR(50)</tspan></text></svg><svg width="155.37" height="100" x="-111.73" y="-79.73" id="h311790747" class="t"><rect height="40" width="155.37" class="th"></rect><text x="13" y="25" class="tht">titles</text><rect height="60" width="155.37" class="t-bg" y="40"></rect><text x="13" y="61" class="tf pk">title_id<tspan x="142.37" class="ty">varchar(5)</tspan></text><path d="M7,14A2,2 0 0,1 5,12A2,2 0 0,1 7,10A2,2 0 0,1 9,12A2,2 0 0,1 7,14M12.65,10C11.83,7.67 9.61,6 7, 6A6, 6 0 0, 0 1, 12A6, 6 0 0, 0 7, 18C9.61, 18 11.83, 16.33 12.65, 14H17V18H21V14H23V10H12.65Z" class="i pk" transform="translate(67.6903125, 48) scale(0.65)"></path><text x="13" y="86" class="tf">title<tspan x="142.37" class="ty">VARCHAR(50)</tspan></text></svg><svg width="128.7" height="100" x="-181.42" y="75.21" id="h3858243705" class="t"><rect height="40" width="128.7" class="th"></rect><text x="13" y="25" class="tht">Salaries</text><rect height="60" width="128.7" class="t-bg" y="40"></rect><text x="13" y="61" class="tf pk">emp_no<tspan x="115.69999999999999" class="ty">INT</tspan></text><path d="M7,14A2,2 0 0,1 5,12A2,2 0 0,1 7,10A2,2 0 0,1 9,12A2,2 0 0,1 7,14M12.65,10C11.83,7.67 9.61,6 7, 6A6, 6 0 0, 0 1, 12A6, 6 0 0, 0 7, 18C9.61, 18 11.83, 16.33 12.65, 14H17V18H21V14H23V10H12.65Z" class="i pk" transform="translate(76.36992187499999, 48) scale(0.65)"></path><text x="13" y="86" class="tf">salary<tspan x="115.69999999999999" class="ty">INT</tspan></text></svg><svg width="161.83" height="100" x="-170" y="-342" id="h2403958395" class="t"><rect height="40" width="161.83" class="th"></rect><text x="13" y="25" class="tht">Dept_manager</text><rect height="60" width="161.83" class="t-bg" y="40"></rect><text x="13" y="61" class="tf fk">dept_no<tspan x="148.83" class="ty">VARCHAR(5)</tspan></text><text x="13" y="86" class="tf fk">emp_no<tspan x="148.83" class="ty">INT</tspan></text></svg><svg width="189.84" height="225" x="-512.83" y="-218.51" id="h3299212598" class="t"><rect height="40" width="189.84" class="th"></rect><text x="13" y="25" class="tht">Employees</text><rect height="185" width="189.84" class="t-bg" y="40"></rect><text x="13" y="61" class="tf pk">emp_no<tspan x="176.84" class="ty">INT</tspan></text><path d="M7,14A2,2 0 0,1 5,12A2,2 0 0,1 7,10A2,2 0 0,1 9,12A2,2 0 0,1 7,14M12.65,10C11.83,7.67 9.61,6 7, 6A6, 6 0 0, 0 1, 12A6, 6 0 0, 0 7, 18C9.61, 18 11.83, 16.33 12.65, 14H17V18H21V14H23V10H12.65Z" class="i pk" transform="translate(137.509921875, 48) scale(0.65)"></path><text x="13" y="86" class="tf fk">emp_title_id<tspan x="176.84" class="ty">VARCHAR(10)</tspan></text><text x="13" y="111" class="tf">birth_date<tspan x="176.84" class="ty">DATE</tspan></text><text x="13" y="136" class="tf">first_name<tspan x="176.84" class="ty">VARCHAR(30)</tspan></text><text x="13" y="161" class="tf">last_name<tspan x="176.84" class="ty">VARCHAR(40)</tspan></text><text x="13" y="186" class="tf">sex<tspan x="176.84" class="ty">CHAR(1)</tspan></text><text x="13" y="211" class="tf">hire_date<tspan x="176.84" class="ty">Date</tspan></text></svg><svg width="181.83" height="100" x="-180.89" y="-210.95" id="h3353995054" class="t"><rect height="40" width="181.83" class="th"></rect><text x="13" y="25" class="tht">Dept_Emp</text><rect height="60" width="181.83" class="t-bg" y="40"></rect><text x="13" y="61" class="tf fk">emp_no<tspan x="168.83" class="ty">INT</tspan></text><text x="13" y="86" class="tf pk">dept_no<tspan x="168.83" class="ty">VARCHAR(5)</tspan></text><path d="M7,14A2,2 0 0,1 5,12A2,2 0 0,1 7,10A2,2 0 0,1 9,12A2,2 0 0,1 7,14M12.65,10C11.83,7.67 9.61,6 7, 6A6, 6 0 0, 0 1, 12A6, 6 0 0, 0 7, 18C9.61, 18 11.83, 16.33 12.65, 14H17V18H21V14H23V10H12.65Z" class="i pk" transform="translate(76.37296875000001, 73) scale(0.65)"></path></svg></g></g><text class="qdbd-link" x="10" y="20">www.quickdatabasediagrams.com</text></svg>